<mxfile host="65bd71144e">
    <diagram id="GCOIHQHjHhxA3ld77Z4R" name="第 1 页">
        <mxGraphModel dx="884" dy="567" grid="1" gridSize="10" guides="1" tooltips="1" connect="1" arrows="1" fold="1" page="1" pageScale="1" pageWidth="827" pageHeight="1169" math="0" shadow="0">
            <root>
                <mxCell id="0"/>
                <mxCell id="1" parent="0"/>
                <mxCell id="2" value="mounted" style="rounded=1;whiteSpace=wrap;html=1;" vertex="1" parent="1">
                    <mxGeometry x="150" y="20" width="90" height="40" as="geometry"/>
                </mxCell>
                <mxCell id="8" style="edgeStyle=none;html=1;exitX=0.5;exitY=1;exitDx=0;exitDy=0;entryX=0.5;entryY=0;entryDx=0;entryDy=0;fontColor=#FFFFFF;" edge="1" parent="1" source="3" target="6">
                    <mxGeometry relative="1" as="geometry"/>
                </mxCell>
                <mxCell id="3" value="&lt;div style=&quot;background-color: rgb(30 , 30 , 30) ; font-family: &amp;#34;consolas&amp;#34; , &amp;#34;courier new&amp;#34; , monospace ; font-size: 14px ; line-height: 19px&quot;&gt;&lt;font color=&quot;#ffffff&quot;&gt;checkStartPush&lt;/font&gt;&lt;/div&gt;" style="rounded=0;whiteSpace=wrap;html=1;" vertex="1" parent="1">
                    <mxGeometry x="100" y="100" width="190" height="50" as="geometry"/>
                </mxCell>
                <mxCell id="9" style="edgeStyle=none;html=1;exitX=0.5;exitY=1;exitDx=0;exitDy=0;entryX=0.5;entryY=0;entryDx=0;entryDy=0;fontColor=#FFFFFF;" edge="1" parent="1" source="6" target="7">
                    <mxGeometry relative="1" as="geometry"/>
                </mxCell>
                <mxCell id="6" value="设备是否禁用" style="rhombus;whiteSpace=wrap;html=1;fontColor=#FFFFFF;" vertex="1" parent="1">
                    <mxGeometry x="127.5" y="200" width="135" height="80" as="geometry"/>
                </mxCell>
                <mxCell id="21" style="edgeStyle=none;html=1;exitX=0.5;exitY=1;exitDx=0;exitDy=0;fontColor=#FFFFFF;" edge="1" parent="1" source="7" target="11">
                    <mxGeometry relative="1" as="geometry"/>
                </mxCell>
                <mxCell id="7" value="设备是否支持连麦" style="rhombus;whiteSpace=wrap;html=1;fontColor=#FFFFFF;" vertex="1" parent="1">
                    <mxGeometry x="115" y="340" width="160" height="90" as="geometry"/>
                </mxCell>
                <mxCell id="13" style="edgeStyle=none;html=1;exitX=0.5;exitY=1;exitDx=0;exitDy=0;fontColor=#FFFFFF;" edge="1" parent="1" source="11" target="12">
                    <mxGeometry relative="1" as="geometry"/>
                </mxCell>
                <mxCell id="20" style="edgeStyle=none;html=1;exitX=1;exitY=0.5;exitDx=0;exitDy=0;entryX=0;entryY=0.5;entryDx=0;entryDy=0;fontColor=#FFFFFF;" edge="1" parent="1" source="11" target="16">
                    <mxGeometry relative="1" as="geometry"/>
                </mxCell>
                <mxCell id="11" value="是否在麦" style="rhombus;whiteSpace=wrap;html=1;fontColor=#FFFFFF;" vertex="1" parent="1">
                    <mxGeometry x="92.5" y="480" width="205" height="90" as="geometry"/>
                </mxCell>
                <mxCell id="35" style="edgeStyle=none;html=1;exitX=0.5;exitY=1;exitDx=0;exitDy=0;fontColor=#FFFFFF;shape=flexArrow;dashed=1;dashPattern=1 1;" edge="1" parent="1" source="12" target="23">
                    <mxGeometry relative="1" as="geometry"/>
                </mxCell>
                <mxCell id="12" value="开始推流&lt;br&gt;startPush" style="rounded=1;whiteSpace=wrap;html=1;fontColor=#FFFFFF;" vertex="1" parent="1">
                    <mxGeometry x="135" y="650" width="120" height="60" as="geometry"/>
                </mxCell>
                <mxCell id="14" value="N" style="text;html=1;strokeColor=none;fillColor=none;align=center;verticalAlign=middle;whiteSpace=wrap;rounded=0;fontColor=#FFFFFF;" vertex="1" parent="1">
                    <mxGeometry x="320" y="490" width="60" height="30" as="geometry"/>
                </mxCell>
                <mxCell id="15" value="Y" style="text;html=1;strokeColor=none;fillColor=none;align=center;verticalAlign=middle;whiteSpace=wrap;rounded=0;fontColor=#FFFFFF;" vertex="1" parent="1">
                    <mxGeometry x="135" y="610" width="60" height="30" as="geometry"/>
                </mxCell>
                <mxCell id="18" style="edgeStyle=none;html=1;exitX=0.5;exitY=1;exitDx=0;exitDy=0;fontColor=#FFFFFF;" edge="1" parent="1" source="16" target="17">
                    <mxGeometry relative="1" as="geometry"/>
                </mxCell>
                <mxCell id="16" value="是否为分组非禁言等相关逻辑" style="rhombus;whiteSpace=wrap;html=1;fontColor=#FFFFFF;" vertex="1" parent="1">
                    <mxGeometry x="410" y="490" width="190" height="70" as="geometry"/>
                </mxCell>
                <mxCell id="17" value="调用上麦接口&lt;br&gt;&lt;div style=&quot;color: rgb(212 , 212 , 212) ; background-color: rgb(30 , 30 , 30) ; font-family: &amp;#34;consolas&amp;#34; , &amp;#34;courier new&amp;#34; , monospace ; font-size: 14px ; line-height: 19px&quot;&gt;&lt;span style=&quot;color: #dcdcaa&quot;&gt;userSpeakOn&lt;/span&gt;&lt;/div&gt;" style="rounded=1;whiteSpace=wrap;html=1;fontColor=#FFFFFF;" vertex="1" parent="1">
                    <mxGeometry x="445" y="650" width="120" height="60" as="geometry"/>
                </mxCell>
                <mxCell id="19" value="Y" style="text;html=1;strokeColor=none;fillColor=none;align=center;verticalAlign=middle;whiteSpace=wrap;rounded=0;fontColor=#FFFFFF;" vertex="1" parent="1">
                    <mxGeometry x="440" y="585" width="60" height="30" as="geometry"/>
                </mxCell>
                <mxCell id="22" value="N" style="text;html=1;strokeColor=none;fillColor=none;align=center;verticalAlign=middle;whiteSpace=wrap;rounded=0;fontColor=#FFFFFF;" vertex="1" parent="1">
                    <mxGeometry x="135" y="300" width="60" height="30" as="geometry"/>
                </mxCell>
                <mxCell id="33" style="edgeStyle=none;html=1;exitX=0.5;exitY=1;exitDx=0;exitDy=0;fontColor=#FFFFFF;" edge="1" parent="1" source="23" target="29">
                    <mxGeometry relative="1" as="geometry"/>
                </mxCell>
                <mxCell id="23" value="startPush" style="swimlane;fontColor=#FFFFFF;" vertex="1" parent="1">
                    <mxGeometry x="93" y="830" width="207" height="250" as="geometry"/>
                </mxCell>
                <mxCell id="24" value="创建本地流" style="whiteSpace=wrap;html=1;fontColor=#FFFFFF;" vertex="1" parent="23">
                    <mxGeometry x="32" y="40" width="130" height="40" as="geometry"/>
                </mxCell>
                <mxCell id="25" value="推送本地流" style="whiteSpace=wrap;html=1;fontColor=#FFFFFF;" vertex="1" parent="23">
                    <mxGeometry x="32" y="100" width="130" height="40" as="geometry"/>
                </mxCell>
                <mxCell id="26" value="是否设置禁音" style="whiteSpace=wrap;html=1;fontColor=#FFFFFF;" vertex="1" parent="23">
                    <mxGeometry x="32" y="150" width="130" height="40" as="geometry"/>
                </mxCell>
                <mxCell id="28" value="获取音量/网络状态" style="whiteSpace=wrap;html=1;fontColor=#FFFFFF;" vertex="1" parent="23">
                    <mxGeometry x="32" y="200" width="130" height="40" as="geometry"/>
                </mxCell>
                <mxCell id="32" style="edgeStyle=none;html=1;exitX=0.5;exitY=1;exitDx=0;exitDy=0;fontColor=#FFFFFF;" edge="1" parent="1" source="29" target="30">
                    <mxGeometry relative="1" as="geometry"/>
                </mxCell>
                <mxCell id="29" value="存在异常" style="rhombus;whiteSpace=wrap;html=1;fontColor=#FFFFFF;" vertex="1" parent="1">
                    <mxGeometry x="129" y="1140" width="135" height="90" as="geometry"/>
                </mxCell>
                <mxCell id="30" value="&lt;div style=&quot;color: rgb(212 , 212 , 212) ; background-color: rgb(30 , 30 , 30) ; font-family: &amp;#34;consolas&amp;#34; , &amp;#34;courier new&amp;#34; , monospace ; font-size: 14px ; line-height: 19px&quot;&gt;&lt;span style=&quot;color: #dcdcaa&quot;&gt;异常处理&lt;/span&gt;&lt;/div&gt;&lt;div style=&quot;color: rgb(212 , 212 , 212) ; background-color: rgb(30 , 30 , 30) ; font-family: &amp;#34;consolas&amp;#34; , &amp;#34;courier new&amp;#34; , monospace ; font-size: 14px ; line-height: 19px&quot;&gt;&lt;span style=&quot;color: #dcdcaa&quot;&gt;handleSpeakOnError&lt;/span&gt;&lt;/div&gt;" style="rounded=1;whiteSpace=wrap;html=1;fontColor=#FFFFFF;" vertex="1" parent="1">
                    <mxGeometry x="118.5" y="1300" width="153" height="70" as="geometry"/>
                </mxCell>
                <mxCell id="31" value="Y" style="text;html=1;strokeColor=none;fillColor=none;align=center;verticalAlign=middle;whiteSpace=wrap;rounded=0;fontColor=#FFFFFF;" vertex="1" parent="1">
                    <mxGeometry x="135" y="1250" width="60" height="30" as="geometry"/>
                </mxCell>
                <mxCell id="41" style="edgeStyle=none;shape=flexArrow;html=1;exitX=0.5;exitY=1;exitDx=0;exitDy=0;dashed=1;dashPattern=1 1;fontColor=#FFFFFF;" edge="1" parent="1" source="37">
                    <mxGeometry relative="1" as="geometry">
                        <mxPoint x="540" y="910" as="targetPoint"/>
                    </mxGeometry>
                </mxCell>
                <mxCell id="37" value="监听上麦成功&lt;br&gt;&lt;div style=&quot;color: rgb(212 , 212 , 212) ; background-color: rgb(30 , 30 , 30) ; font-family: &amp;#34;consolas&amp;#34; , &amp;#34;courier new&amp;#34; , monospace ; font-size: 14px ; line-height: 19px&quot;&gt;&lt;span style=&quot;color: #ce9178&quot;&gt;vrtc_connect_success&lt;/span&gt;&lt;/div&gt;" style="rounded=0;whiteSpace=wrap;html=1;fontColor=#FFFFFF;" vertex="1" parent="1">
                    <mxGeometry x="445" y="830" width="190" height="40" as="geometry"/>
                </mxCell>
                <mxCell id="38" value="监听下麦成功&lt;br&gt;&lt;div style=&quot;color: rgb(212 , 212 , 212) ; background-color: rgb(30 , 30 , 30) ; font-family: &amp;#34;consolas&amp;#34; , &amp;#34;courier new&amp;#34; , monospace ; font-size: 14px ; line-height: 19px&quot;&gt;&lt;div style=&quot;font-family: &amp;#34;consolas&amp;#34; , &amp;#34;courier new&amp;#34; , monospace ; line-height: 19px&quot;&gt;&lt;span style=&quot;color: #ce9178&quot;&gt;vrtc_disconnect_success&lt;/span&gt;&lt;/div&gt;&lt;/div&gt;" style="rounded=0;whiteSpace=wrap;html=1;fontColor=#FFFFFF;" vertex="1" parent="1">
                    <mxGeometry x="770" y="830" width="190" height="40" as="geometry"/>
                </mxCell>
                <mxCell id="39" value="其他相关监听：&lt;br&gt;查看代码&lt;span style=&quot;color: rgb(220 , 220 , 170) ; background-color: rgb(30 , 30 , 30) ; font-family: &amp;#34;consolas&amp;#34; , &amp;#34;courier new&amp;#34; , monospace ; font-size: 14px&quot;&gt;listenEvents事件&lt;/span&gt;" style="rounded=0;whiteSpace=wrap;html=1;fontColor=#FFFFFF;" vertex="1" parent="1">
                    <mxGeometry x="1140" y="820" width="245" height="60" as="geometry"/>
                </mxCell>
                <mxCell id="42" value="vrtc_connect_success" style="swimlane;fontColor=#FFFFFF;dashed=1;startSize=20;" vertex="1" parent="1">
                    <mxGeometry x="414" y="910" width="266" height="530" as="geometry"/>
                </mxCell>
                <mxCell id="49" style="edgeStyle=none;html=1;exitX=0.5;exitY=1;exitDx=0;exitDy=0;entryX=0.5;entryY=0;entryDx=0;entryDy=0;dashed=1;dashPattern=1 1;fontColor=#FFFFFF;" edge="1" parent="42" source="44" target="46">
                    <mxGeometry relative="1" as="geometry"/>
                </mxCell>
                <mxCell id="44" value="设备是否禁用" style="rhombus;whiteSpace=wrap;html=1;fontColor=#FFFFFF;" vertex="1" parent="42">
                    <mxGeometry x="65" y="60" width="121" height="50" as="geometry"/>
                </mxCell>
                <mxCell id="45" value="Y" style="text;html=1;strokeColor=none;fillColor=none;align=center;verticalAlign=middle;whiteSpace=wrap;rounded=0;dashed=1;fontColor=#FFFFFF;" vertex="1" parent="42">
                    <mxGeometry x="61" y="110" width="60" height="30" as="geometry"/>
                </mxCell>
                <mxCell id="46" value="下麦&lt;br&gt;中断返回" style="rounded=1;whiteSpace=wrap;html=1;fontColor=#FFFFFF;" vertex="1" parent="42">
                    <mxGeometry x="72" y="140" width="107" height="40" as="geometry"/>
                </mxCell>
                <mxCell id="53" style="edgeStyle=none;html=1;exitX=0.5;exitY=1;exitDx=0;exitDy=0;entryX=0.5;entryY=0;entryDx=0;entryDy=0;dashed=1;dashPattern=1 1;fontColor=#FFFFFF;" edge="1" parent="42" source="50" target="52">
                    <mxGeometry relative="1" as="geometry"/>
                </mxCell>
                <mxCell id="50" value="非自动上麦" style="rhombus;whiteSpace=wrap;html=1;fontColor=#FFFFFF;" vertex="1" parent="42">
                    <mxGeometry x="65" y="230" width="121" height="50" as="geometry"/>
                </mxCell>
                <mxCell id="51" value="Y" style="text;html=1;strokeColor=none;fillColor=none;align=center;verticalAlign=middle;whiteSpace=wrap;rounded=0;dashed=1;fontColor=#FFFFFF;" vertex="1" parent="42">
                    <mxGeometry x="61" y="280" width="60" height="30" as="geometry"/>
                </mxCell>
                <mxCell id="52" value="初始化互动实例" style="rounded=1;whiteSpace=wrap;html=1;fontColor=#FFFFFF;" vertex="1" parent="42">
                    <mxGeometry x="72" y="310" width="107" height="40" as="geometry"/>
                </mxCell>
                <mxCell id="54" value="检测互动实例" style="rounded=1;whiteSpace=wrap;html=1;fontColor=#FFFFFF;" vertex="1" parent="42">
                    <mxGeometry x="72" y="400" width="107" height="40" as="geometry"/>
                </mxCell>
                <mxCell id="55" value="推流&lt;br&gt;startPush" style="rounded=1;whiteSpace=wrap;html=1;fontColor=#FFFFFF;" vertex="1" parent="42">
                    <mxGeometry x="81" y="470" width="89" height="40" as="geometry"/>
                </mxCell>
                <mxCell id="58" value="vrtc_disconnect_success" style="swimlane;fontColor=#FFFFFF;dashed=1;startSize=20;" vertex="1" parent="1">
                    <mxGeometry x="740" y="900" width="380" height="530" as="geometry"/>
                </mxCell>
                <mxCell id="69" value="停止推流&lt;br&gt;stopPush" style="rounded=1;whiteSpace=wrap;html=1;fontColor=#FFFFFF;" vertex="1" parent="58">
                    <mxGeometry x="79.5" y="60" width="107" height="40" as="geometry"/>
                </mxCell>
                <mxCell id="70" value="销毁互动实例" style="rounded=1;whiteSpace=wrap;html=1;fontColor=#FFFFFF;" vertex="1" parent="58">
                    <mxGeometry x="79.5" y="140" width="107" height="40" as="geometry"/>
                </mxCell>
                <mxCell id="73" style="edgeStyle=none;html=1;exitX=0.5;exitY=1;exitDx=0;exitDy=0;entryX=0.5;entryY=0;entryDx=0;entryDy=0;dashed=1;dashPattern=1 1;fontColor=#FFFFFF;" edge="1" parent="58" source="71" target="72">
                    <mxGeometry relative="1" as="geometry"/>
                </mxCell>
                <mxCell id="76" value="" style="edgeStyle=none;html=1;dashed=1;dashPattern=1 1;fontColor=#FFFFFF;" edge="1" parent="58" source="71" target="75">
                    <mxGeometry relative="1" as="geometry"/>
                </mxCell>
                <mxCell id="71" value="是否为无延迟" style="rhombus;whiteSpace=wrap;html=1;fontColor=#FFFFFF;" vertex="1" parent="58">
                    <mxGeometry x="74.25" y="219" width="117.5" height="50" as="geometry"/>
                </mxCell>
                <mxCell id="72" value="初始化互动实例" style="rounded=1;whiteSpace=wrap;html=1;fontColor=#FFFFFF;" vertex="1" parent="58">
                    <mxGeometry x="79.5" y="340" width="107" height="40" as="geometry"/>
                </mxCell>
                <mxCell id="74" value="Y" style="text;html=1;strokeColor=none;fillColor=none;align=center;verticalAlign=middle;whiteSpace=wrap;rounded=0;dashed=1;fontColor=#FFFFFF;" vertex="1" parent="58">
                    <mxGeometry x="70" y="290" width="60" height="30" as="geometry"/>
                </mxCell>
                <mxCell id="80" style="edgeStyle=none;html=1;exitX=0.5;exitY=1;exitDx=0;exitDy=0;dashed=1;dashPattern=1 1;fontColor=#FFFFFF;" edge="1" parent="58" source="75" target="79">
                    <mxGeometry relative="1" as="geometry"/>
                </mxCell>
                <mxCell id="75" value="是否为分组" style="rhombus;whiteSpace=wrap;html=1;fontColor=#FFFFFF;" vertex="1" parent="58">
                    <mxGeometry x="240" y="210" width="120" height="80" as="geometry"/>
                </mxCell>
                <mxCell id="77" value="Y" style="text;html=1;strokeColor=none;fillColor=none;align=center;verticalAlign=middle;whiteSpace=wrap;rounded=0;dashed=1;fontColor=#FFFFFF;" vertex="1" parent="58">
                    <mxGeometry x="191.75" y="210" width="60" height="30" as="geometry"/>
                </mxCell>
                <mxCell id="78" value="Y" style="text;html=1;strokeColor=none;fillColor=none;align=center;verticalAlign=middle;whiteSpace=wrap;rounded=0;dashed=1;fontColor=#FFFFFF;" vertex="1" parent="58">
                    <mxGeometry x="230" y="290" width="60" height="30" as="geometry"/>
                </mxCell>
                <mxCell id="79" value="更新小组数据" style="rounded=1;whiteSpace=wrap;html=1;fontColor=#FFFFFF;" vertex="1" parent="58">
                    <mxGeometry x="246.5" y="340" width="107" height="40" as="geometry"/>
                </mxCell>
            </root>
        </mxGraphModel>
    </diagram>
</mxfile>